<?xml version="1.0" encoding="utf-8"?>
<!-- Generator: Adobe Illustrator 17.1.0, SVG Export Plug-In . SVG Version: 6.00 Build 0)  -->
<!DOCTYPE svg PUBLIC "-//W3C//DTD SVG 1.1//EN" "http://www.w3.org/Graphics/SVG/1.1/DTD/svg11.dtd">
<svg version="1.1" id="Layer_1" xmlns="http://www.w3.org/2000/svg" xmlns:xlink="http://www.w3.org/1999/xlink" x="0px" y="0px"
	 viewBox="0 0 408.7 150.3" enable-background="new 0 0 408.7 150.3" xml:space="preserve">
<g>
	<path d="M255.4,62.4c-4.4-4.3-10.8-6.4-19-6.4c-5.9,0-11,1.5-15.3,4.4c-4.3,3-6.9,6.1-7.9,9.4h-25.8c4.1-12.8,10.5-22,19-27.5
		c8.5-5.5,18.9-8.3,31-8.3c8.4,0,16,1.3,22.7,4c6.8,2.7,12.5,6.5,17.2,11.5c4.7,5,8.3,10.9,10.9,17.8c2.6,6.9,3.8,14.5,3.8,22.7
		c0,8-1.3,15.4-3.9,22.3c-2.6,6.9-6.3,12.9-11.2,17.9c-4.8,5-10.6,9-17.3,11.9c-6.7,2.9-14.1,4.3-22.2,4.3c-9.1,0-17-1.8-23.8-5.3
		c-6.8-3.5-12.3-8.2-16.6-14.2c-4.3-5.9-7.5-12.7-9.4-20.3c-1.9-7.6-2.6-15.5-2.1-23.8h77.1C262.2,73.6,259.8,66.7,255.4,62.4z
		 M222.2,118.6c3.5,3.9,8.9,5.8,16,5.8c4.7,0,8.6-0.8,11.7-2.4c3.1-1.6,5.6-3.6,7.4-5.9c1.9-2.3,3.2-4.8,3.9-7.4
		c0.8-2.6,1.2-5,1.3-7h-47.8C216.3,109.1,218.7,114.8,222.2,118.6z"/>
</g>
<g>
	<path d="M106.9,47.1c4.7-4.8,10.2-8.2,16.5-10.1c6.3-1.9,12.8-2.9,19.4-2.9c5.1,0,9.9,0.6,14.3,1.9c4.4,1.2,8.3,3.2,11.6,5.8
		c3.3,2.6,5.9,5.9,7.8,9.9c1.9,4,2.8,8.8,2.8,14.3c0,6.1-1.1,11.1-3.2,15c-2.1,3.9-4.9,7.1-8.3,9.4c-3.4,2.3-7.2,4.1-11.6,5.3
		c-4.3,1.2-8.7,2.1-13.1,2.8c-4.4,0.7-8.8,1.2-13,1.7c-4.3,0.4-8.1,1-11.4,1.9s-5.9,2-7.9,3.6c-1.9,1.6-2.8,3.9-2.7,6.9
		c0,3.2,0.5,5.7,1.6,7.5c1,1.9,2.4,3.3,4.1,4.3c1.7,1,3.7,1.7,6,2.1c2.3,0.3,4.7,0.5,7.3,0.5c5.8,0,10.3-1.2,13.6-3.7
		s5.2-6.6,5.8-12.4H176c-0.4,6.9-2.1,12.6-5.2,17.2c-3,4.5-6.9,8.2-11.6,11c-4.7,2.8-10,4.7-15.8,5.9c-5.9,1.2-11.8,1.8-17.7,1.8
		c-5.4,0-10.8-0.4-16.3-1.1c-5.5-0.8-10.5-2.2-15.1-4.4c-4.5-2.2-8.3-5.3-11.2-9.2c-2.9-3.9-4.3-9.1-4.3-15.6V60.5
		c0-4.8,0-23.8,0-23.8h28.1 M112.8,86.5c1.9-0.6,3.9-1.1,6-1.6c2.1-0.4,4.4-0.8,6.7-1c2.3-0.3,4.7-0.6,7-1c2.2-0.4,4.4-1,6.5-1.7
		c2.1-0.7,4-1.6,5.6-2.8c1.6-1.2,2.9-2.7,3.8-4.4c1-1.8,1.4-4.1,1.4-6.8c0-2.6-0.5-4.8-1.4-6.6c-1-1.8-2.3-3.2-3.9-4.2
		c-1.7-1-3.6-1.8-5.8-2.2c-2.2-0.4-4.5-0.6-6.8-0.6c-5.8,0-10.3,1-13.4,2.9c-3.2,1.9-5.5,4.2-7,6.9c-1.5,2.7-2.4,5.4-2.8,8.2
		c-0.3,2.8-0.5,5-0.5,6.6v11C109.4,88,111,87.1,112.8,86.5z"/>
</g>
<g>
	<path d="M27.9,38.7v19.8h0.4c1.4-3.3,3.2-6.4,5.6-9.2c2.3-2.8,5-5.2,8.1-7.2c3-2,6.3-3.5,9.7-4.7c3.4-1.1,7-1.7,10.8-1.7
		c1.9,0,4.1,0.3,6.4,1v27.3c-1.4-0.3-3-0.5-5-0.7c-1.9-0.2-3.8-0.3-5.6-0.3c-5.4,0-9.9,0.9-13.6,2.7c-3.7,1.8-6.7,4.2-9,7.3
		s-3.9,6.7-4.9,10.9c-1,4.1-1.4,8.6-1.4,13.4v48.2H0V38.7H27.9z"/>
</g>
<g>
	<path d="M380.4,134c-3.4,5.8-8,10-13.5,12.5c-5.6,2.5-11.9,3.8-18.9,3.8c-8,0-15-1.6-21.1-4.7c-6.1-3.1-11.1-7.3-15-12.6
		c-3.9-5.3-6.9-11.4-8.9-18.3c-2-6.9-3-14.1-3-21.5c0-7.2,1-14.1,3-20.8c2-6.7,5-12.6,8.9-17.7c3.9-5.1,8.9-9.2,14.8-12.3
		c5.9-3.1,12.8-4.7,20.7-4.7c6.3,0,12.4,1.3,18.1,4c5.7,2.7,10.2,6.7,13.5,11.9h0.4V0h29.4v147.6h-27.9V134H380.4z M379.1,81.2
		c-0.8-4.1-2.2-7.7-4.2-10.8c-2-3.1-4.6-5.6-7.8-7.5c-3.2-1.9-7.2-2.9-12-2.9c-4.8,0-8.9,1-12.2,2.9c-3.3,1.9-6,4.5-8,7.7
		c-2,3.2-3.4,6.8-4.3,10.9c-0.9,4.1-1.3,8.3-1.3,12.7c0,4.1,0.5,8.3,1.4,12.4c1,4.1,2.5,7.8,4.7,11.1c2.1,3.2,4.8,5.9,8.1,7.9
		c3.2,2,7.1,3,11.7,3c4.8,0,8.9-1,12.1-2.9c3.2-1.9,5.8-4.5,7.8-7.8c1.9-3.2,3.3-6.9,4.1-11.1c0.8-4.1,1.2-8.4,1.2-12.8
		C380.4,89.5,379.9,85.2,379.1,81.2z"/>
</g>
</svg>
